<svg xmlns="http://www.w3.org/2000/svg" xmlns:xlink="http://www.w3.org/1999/xlink" viewBox="0 0 50 50" fill="#5E627D">
  <path d="M7 8C4.242188 8 2 10.242188 2 13L2 35C2 37.757813 4.242188 40 7 40L11.15625 40C13.929688 44.773438 19.09375 48 25 48C25.371094 48 25.730469 47.992188 26.09375 47.96875C28.632813 47.796875 31.015625 47.007813 33.09375 45.78125C35.46875 44.378906 37.457031 42.386719 38.84375 40L36.46875 40C38.058594 37.730469 39 34.972656 39 32C39 29.027344 38.058594 26.269531 36.46875 24L16.0625 24C15.511719 24.613281 13 26.925781 13 32C13 37.074219 16.417969 40.402344 17.09375 41L35.6875 41C35.679688 41.011719 35.664063 41.019531 35.65625 41.03125C35.34375 41.398438 35.003906 41.757813 34.65625 42.09375C34.320313 42.417969 33.960938 42.710938 33.59375 43C33.570313 43.019531 33.554688 43.042969 33.53125 43.0625C33.511719 43.078125 33.488281 43.078125 33.46875 43.09375C33.132813 43.351563 32.796875 43.585938 32.4375 43.8125C32.394531 43.839844 32.355469 43.878906 32.3125 43.90625C32.0625 44.058594 31.820313 44.207031 31.5625 44.34375C31.523438 44.367188 31.476563 44.382813 31.4375 44.40625C31.230469 44.511719 31.023438 44.621094 30.8125 44.71875C30.738281 44.753906 30.667969 44.78125 30.59375 44.8125C30.265625 44.957031 29.933594 45.097656 29.59375 45.21875C29.226563 45.347656 28.847656 45.464844 28.46875 45.5625C28.460938 45.566406 28.445313 45.558594 28.4375 45.5625C28.203125 45.621094 27.957031 45.671875 27.71875 45.71875C27.675781 45.726563 27.636719 45.742188 27.59375 45.75C27.261719 45.8125 26.933594 45.867188 26.59375 45.90625C26.074219 45.964844 25.535156 46 25 46C17.28125 46 11 39.71875 11 32C11 31.660156 11.039063 31.332031 11.0625 31C11.09375 30.554688 11.148438 30.121094 11.21875 29.6875C11.222656 29.675781 11.21875 29.667969 11.21875 29.65625C11.289063 29.234375 11.390625 28.816406 11.5 28.40625C11.507813 28.382813 11.492188 28.363281 11.5 28.34375C11.609375 27.945313 11.734375 27.539063 11.875 27.15625C11.886719 27.121094 11.894531 27.097656 11.90625 27.0625C12.046875 26.695313 12.207031 26.320313 12.375 25.96875C12.398438 25.921875 12.414063 25.890625 12.4375 25.84375C12.601563 25.507813 12.777344 25.164063 12.96875 24.84375C13.003906 24.785156 13.058594 24.746094 13.09375 24.6875C13.28125 24.382813 13.480469 24.066406 13.6875 23.78125C13.738281 23.710938 13.789063 23.664063 13.84375 23.59375C14.046875 23.324219 14.246094 23.066406 14.46875 22.8125C14.542969 22.730469 14.613281 22.644531 14.6875 22.5625C14.902344 22.328125 15.117188 22.09375 15.34375 21.875C15.441406 21.785156 15.558594 21.683594 15.65625 21.59375C15.875 21.394531 16.082031 21.214844 16.3125 21.03125C16.433594 20.933594 16.5625 20.84375 16.6875 20.75C16.910156 20.585938 17.144531 20.433594 17.375 20.28125C17.523438 20.183594 17.660156 20.089844 17.8125 20C18.03125 19.867188 18.273438 19.746094 18.5 19.625C18.675781 19.53125 18.847656 19.429688 19.03125 19.34375C19.246094 19.242188 19.46875 19.152344 19.6875 19.0625C19.894531 18.976563 20.101563 18.886719 20.3125 18.8125C20.519531 18.738281 20.726563 18.65625 20.9375 18.59375C21.175781 18.519531 21.410156 18.46875 21.65625 18.40625C21.847656 18.359375 22.054688 18.320313 22.25 18.28125C22.539063 18.222656 22.832031 18.195313 23.125 18.15625C23.285156 18.132813 23.429688 18.078125 23.59375 18.0625C24.054688 18.015625 24.527344 18 25 18C25.472656 18 25.945313 18.015625 26.40625 18.0625C26.566406 18.078125 26.714844 18.136719 26.875 18.15625C27.167969 18.195313 27.460938 18.222656 27.75 18.28125C27.945313 18.320313 28.152344 18.359375 28.34375 18.40625C28.589844 18.464844 28.824219 18.519531 29.0625 18.59375C29.273438 18.65625 29.480469 18.738281 29.6875 18.8125C29.898438 18.886719 30.105469 18.976563 30.3125 19.0625C30.53125 19.152344 30.753906 19.242188 30.96875 19.34375C31.152344 19.429688 31.320313 19.53125 31.5 19.625C31.726563 19.746094 31.96875 19.867188 32.1875 20C32.339844 20.09375 32.476563 20.183594 32.625 20.28125C32.855469 20.433594 33.089844 20.585938 33.3125 20.75C33.4375 20.84375 33.566406 20.933594 33.6875 21.03125C33.917969 21.214844 34.125 21.394531 34.34375 21.59375C34.441406 21.683594 34.558594 21.785156 34.65625 21.875C34.882813 22.09375 35.097656 22.328125 35.3125 22.5625C35.386719 22.644531 35.460938 22.730469 35.53125 22.8125C35.753906 23.066406 35.953125 23.324219 36.15625 23.59375C36.210938 23.664063 36.261719 23.710938 36.3125 23.78125C36.363281 23.847656 36.421875 23.929688 36.46875 24L38.84375 24C40.210938 26.359375 41 29.085938 41 32C41 34.914063 40.210938 37.644531 38.84375 40L43 40C45.757813 40 48 37.757813 48 35L48 13C48 10.242188 45.757813 8 43 8 Z M 4 15L46 15L46 20L35.53125 20C32.714844 17.519531 29.039063 16 25 16C21.464844 16 18.207031 17.171875 15.5625 19.125C15.183594 19.402344 14.820313 19.691406 14.46875 20L4 20 Z M 18.8125 28.96875C20.316406 28.96875 21.464844 29.964844 21.5625 31.34375L20.28125 31.34375C20.152344 30.613281 19.570313 30.15625 18.8125 30.15625C17.816406 30.15625 17.21875 30.976563 17.21875 32.3125C17.21875 33.648438 17.808594 34.46875 18.8125 34.46875C19.574219 34.46875 20.152344 34.042969 20.28125 33.34375L21.5625 33.34375C21.453125 34.714844 20.339844 35.65625 18.8125 35.65625C16.972656 35.65625 15.84375 34.378906 15.84375 32.3125C15.84375 30.25 16.96875 28.96875 18.8125 28.96875 Z M 25.53125 28.96875C26.925781 28.96875 27.929688 29.746094 27.96875 30.875L26.71875 30.875C26.65625 30.371094 26.175781 30.0625 25.53125 30.0625C24.867188 30.0625 24.4375 30.363281 24.4375 30.84375C24.4375 31.234375 24.726563 31.46875 25.46875 31.625L26.25 31.78125C27.523438 32.050781 28.0625 32.609375 28.0625 33.59375C28.0625 34.871094 27.089844 35.65625 25.5 35.65625C23.988281 35.65625 23.015625 34.902344 22.96875 33.71875L24.25 33.71875C24.3125 34.234375 24.816406 34.5625 25.5625 34.5625C26.25 34.5625 26.75 34.230469 26.75 33.75C26.75 33.347656 26.433594 33.101563 25.65625 32.9375L24.84375 32.78125C23.6875 32.539063 23.09375 31.9375 23.09375 30.96875C23.09375 29.773438 24.066406 28.96875 25.53125 28.96875 Z M 32.46875 28.96875C33.972656 28.96875 35.121094 29.964844 35.21875 31.34375L33.9375 31.34375C33.808594 30.613281 33.226563 30.15625 32.46875 30.15625C31.472656 30.15625 30.84375 30.976563 30.84375 32.3125C30.84375 33.648438 31.464844 34.46875 32.46875 34.46875C33.230469 34.46875 33.808594 34.042969 33.9375 33.34375L35.21875 33.34375C35.109375 34.714844 33.996094 35.65625 32.46875 35.65625C30.632813 35.65625 29.5 34.378906 29.5 32.3125C29.5 30.25 30.625 28.96875 32.46875 28.96875Z" fill="#5E627D" />
</svg>